<?xml version="1.0" encoding="UTF-8" standalone="no"?>
<!DOCTYPE svg PUBLIC "-//W3C//DTD SVG 1.1//EN"
 "http://www.w3.org/Graphics/SVG/1.1/DTD/svg11.dtd">
<!-- Generated by graphviz version 2.40.1 (20161225.0304)
 -->
<!-- Title: mytree Pages: 1 -->
<svg width="427pt" height="260pt"
 viewBox="0.00 0.00 427.05 260.00" xmlns="http://www.w3.org/2000/svg" xmlns:xlink="http://www.w3.org/1999/xlink">
<g id="graph0" class="graph" transform="scale(1 1) rotate(0) translate(4 256)">
<title>mytree</title>
<polygon fill="#ffffff" stroke="transparent" points="-4,4 -4,-256 423.0536,-256 423.0536,4 -4,4"/>
<!-- Rhaelle -->
<g id="node1" class="node">
<title>Rhaelle</title>
<ellipse fill="none" stroke="#000000" cx="292.9496" cy="-234" rx="40.5654" ry="18"/>
<text text-anchor="middle" x="292.9496" y="-229.8" font-family="Times,serif" font-size="14.00" fill="#000000">Rhaelle</text>
</g>
<!-- Steffon -->
<g id="node2" class="node">
<title>Steffon</title>
<ellipse fill="none" stroke="#000000" cx="292.9496" cy="-162" rx="39.4235" ry="18"/>
<text text-anchor="middle" x="292.9496" y="-157.8" font-family="Times,serif" font-size="14.00" fill="#000000">Steffon</text>
</g>
<!-- Rhaelle&#45;&gt;Steffon -->
<g id="edge1" class="edge">
<title>Rhaelle&#45;&gt;Steffon</title>
<path fill="none" stroke="#000000" d="M292.9496,-215.8314C292.9496,-208.131 292.9496,-198.9743 292.9496,-190.4166"/>
<polygon fill="#000000" stroke="#000000" points="296.4497,-190.4132 292.9496,-180.4133 289.4497,-190.4133 296.4497,-190.4132"/>
</g>
<!-- Robert -->
<g id="node3" class="node">
<title>Robert</title>
<ellipse fill="none" stroke="#000000" cx="197.9496" cy="-90" rx="37.1386" ry="18"/>
<text text-anchor="middle" x="197.9496" y="-85.8" font-family="Times,serif" font-size="14.00" fill="#000000">Robert</text>
</g>
<!-- Steffon&#45;&gt;Robert -->
<g id="edge2" class="edge">
<title>Steffon&#45;&gt;Robert</title>
<path fill="none" stroke="#000000" d="M272.336,-146.3771C258.9244,-136.2125 241.2488,-122.8162 226.4929,-111.6328"/>
<polygon fill="#000000" stroke="#000000" points="228.2804,-108.5959 218.1966,-105.3451 224.0522,-114.1747 228.2804,-108.5959"/>
</g>
<!-- Stannis -->
<g id="node4" class="node">
<title>Stannis</title>
<ellipse fill="none" stroke="#000000" cx="292.9496" cy="-90" rx="39.4428" ry="18"/>
<text text-anchor="middle" x="292.9496" y="-85.8" font-family="Times,serif" font-size="14.00" fill="#000000">Stannis</text>
</g>
<!-- Steffon&#45;&gt;Stannis -->
<g id="edge3" class="edge">
<title>Steffon&#45;&gt;Stannis</title>
<path fill="none" stroke="#000000" d="M292.9496,-143.8314C292.9496,-136.131 292.9496,-126.9743 292.9496,-118.4166"/>
<polygon fill="#000000" stroke="#000000" points="296.4497,-118.4132 292.9496,-108.4133 289.4497,-118.4133 296.4497,-118.4132"/>
</g>
<!-- Renly -->
<g id="node5" class="node">
<title>Renly</title>
<ellipse fill="none" stroke="#000000" cx="384.9496" cy="-90" rx="34.2084" ry="18"/>
<text text-anchor="middle" x="384.9496" y="-85.8" font-family="Times,serif" font-size="14.00" fill="#000000">Renly</text>
</g>
<!-- Steffon&#45;&gt;Renly -->
<g id="edge4" class="edge">
<title>Steffon&#45;&gt;Renly</title>
<path fill="none" stroke="#000000" d="M312.9122,-146.3771C325.9887,-136.1433 343.2508,-122.6338 357.5989,-111.4049"/>
<polygon fill="#000000" stroke="#000000" points="359.9384,-114.0184 365.6564,-105.099 355.6242,-108.5059 359.9384,-114.0184"/>
</g>
<!-- Edric -->
<g id="node6" class="node">
<title>Edric</title>
<ellipse fill="none" stroke="#000000" cx="31.9496" cy="-18" rx="31.8993" ry="18"/>
<text text-anchor="middle" x="31.9496" y="-13.8" font-family="Times,serif" font-size="14.00" fill="#000000">Edric</text>
</g>
<!-- Robert&#45;&gt;Edric -->
<g id="edge5" class="edge">
<title>Robert&#45;&gt;Edric</title>
<path fill="none" stroke="#000000" d="M169.6315,-77.8231C144.2827,-66.9095 106.1102,-50.4417 72.9496,-36 70.9228,-35.1173 68.8403,-34.2086 66.7396,-33.2906"/>
<polygon fill="#000000" stroke="#000000" points="68.0927,-30.0623 57.5285,-29.2575 65.2851,-36.4746 68.0927,-30.0623"/>
</g>
<!-- Mya -->
<g id="node7" class="node">
<title>Mya</title>
<ellipse fill="none" stroke="#000000" cx="110.9496" cy="-18" rx="28.9735" ry="18"/>
<text text-anchor="middle" x="110.9496" y="-13.8" font-family="Times,serif" font-size="14.00" fill="#000000">Mya</text>
</g>
<!-- Robert&#45;&gt;Mya -->
<g id="edge6" class="edge">
<title>Robert&#45;&gt;Mya</title>
<path fill="none" stroke="#000000" d="M179.0719,-74.3771C166.5734,-64.0335 150.0312,-50.3434 136.3779,-39.0441"/>
<polygon fill="#000000" stroke="#000000" points="138.2475,-36.0482 128.312,-32.3689 133.7845,-41.441 138.2475,-36.0482"/>
</g>
<!-- Gendry -->
<g id="node8" class="node">
<title>Gendry</title>
<ellipse fill="none" stroke="#000000" cx="197.9496" cy="-18" rx="39.9896" ry="18"/>
<text text-anchor="middle" x="197.9496" y="-13.8" font-family="Times,serif" font-size="14.00" fill="#000000">Gendry</text>
</g>
<!-- Robert&#45;&gt;Gendry -->
<g id="edge7" class="edge">
<title>Robert&#45;&gt;Gendry</title>
<path fill="none" stroke="#000000" d="M197.9496,-71.8314C197.9496,-64.131 197.9496,-54.9743 197.9496,-46.4166"/>
<polygon fill="#000000" stroke="#000000" points="201.4497,-46.4132 197.9496,-36.4133 194.4497,-46.4133 201.4497,-46.4132"/>
</g>
<!-- Barra -->
<g id="node9" class="node">
<title>Barra</title>
<ellipse fill="none" stroke="#000000" cx="287.9496" cy="-18" rx="32.4595" ry="18"/>
<text text-anchor="middle" x="287.9496" y="-13.8" font-family="Times,serif" font-size="14.00" fill="#000000">Barra</text>
</g>
<!-- Robert&#45;&gt;Barra -->
<g id="edge8" class="edge">
<title>Robert&#45;&gt;Barra</title>
<path fill="none" stroke="#000000" d="M217.4782,-74.3771C230.3569,-64.0742 247.3857,-50.4511 261.4776,-39.1776"/>
<polygon fill="#000000" stroke="#000000" points="263.7594,-41.8344 269.3817,-32.8543 259.3865,-36.3683 263.7594,-41.8344"/>
</g>
<!-- Bella -->
<g id="node10" class="node">
<title>Bella</title>
<ellipse fill="none" stroke="#000000" cx="369.9496" cy="-18" rx="31.3352" ry="18"/>
<text text-anchor="middle" x="369.9496" y="-13.8" font-family="Times,serif" font-size="14.00" fill="#000000">Bella</text>
</g>
<!-- Robert&#45;&gt;Bella -->
<g id="edge9" class="edge">
<title>Robert&#45;&gt;Bella</title>
<path fill="none" stroke="#000000" d="M226.6491,-78.3882C253.2421,-67.577 293.865,-50.9304 328.9496,-36 331.1223,-35.0754 333.3567,-34.1168 335.6074,-33.1452"/>
<polygon fill="#000000" stroke="#000000" points="337.0614,-36.3297 344.8366,-29.1327 334.2703,-29.9101 337.0614,-36.3297"/>
</g>
</g>
</svg>
