<?xml version="1.0" encoding="UTF-8" standalone="no"?>
<!DOCTYPE svg PUBLIC "-//W3C//DTD SVG 1.1//EN"
 "http://www.w3.org/Graphics/SVG/1.1/DTD/svg11.dtd">
<!-- Generated by graphviz version 2.40.1 (20161225.0304)
 -->
<!-- Title: mytree Pages: 1 -->
<svg width="1048pt" height="260pt"
 viewBox="0.00 0.00 1047.55 260.00" xmlns="http://www.w3.org/2000/svg" xmlns:xlink="http://www.w3.org/1999/xlink">
<g id="graph0" class="graph" transform="scale(1 1) rotate(0) translate(4 256)">
<title>mytree</title>
<polygon fill="#ffffff" stroke="transparent" points="-4,4 -4,-256 1043.5465,-256 1043.5465,4 -4,4"/>
<!-- Queen Elizabeth II -->
<g id="node1" class="node">
<title>Queen Elizabeth II</title>
<ellipse fill="none" stroke="#000000" cx="552.453" cy="-234" rx="83.9277" ry="18"/>
<text text-anchor="middle" x="552.453" y="-229.8" font-family="Times,serif" font-size="14.00" fill="#000000">Queen Elizabeth II</text>
</g>
<!-- Charles -->
<g id="node2" class="node">
<title>Charles</title>
<ellipse fill="none" stroke="#000000" cx="306.453" cy="-162" rx="40.5654" ry="18"/>
<text text-anchor="middle" x="306.453" y="-157.8" font-family="Times,serif" font-size="14.00" fill="#000000">Charles</text>
</g>
<!-- Queen Elizabeth II&#45;&gt;Charles -->
<g id="edge1" class="edge">
<title>Queen Elizabeth II&#45;&gt;Charles</title>
<path fill="none" stroke="#000000" d="M502.6713,-219.4297C457.96,-206.3435 392.9544,-187.3175 350.1996,-174.8039"/>
<polygon fill="#000000" stroke="#000000" points="350.9483,-171.3762 340.3678,-171.9263 348.982,-178.0944 350.9483,-171.3762"/>
</g>
<!-- Andrew -->
<g id="node3" class="node">
<title>Andrew</title>
<ellipse fill="none" stroke="#000000" cx="502.453" cy="-162" rx="42.2758" ry="18"/>
<text text-anchor="middle" x="502.453" y="-157.8" font-family="Times,serif" font-size="14.00" fill="#000000">Andrew</text>
</g>
<!-- Queen Elizabeth II&#45;&gt;Andrew -->
<g id="edge2" class="edge">
<title>Queen Elizabeth II&#45;&gt;Andrew</title>
<path fill="none" stroke="#000000" d="M539.8359,-215.8314C533.9604,-207.3707 526.8642,-197.1521 520.4401,-187.9014"/>
<polygon fill="#000000" stroke="#000000" points="523.1275,-185.635 514.5487,-179.4177 517.3779,-189.6278 523.1275,-185.635"/>
</g>
<!-- Edward -->
<g id="node4" class="node">
<title>Edward</title>
<ellipse fill="none" stroke="#000000" cx="603.453" cy="-162" rx="41.1316" ry="18"/>
<text text-anchor="middle" x="603.453" y="-157.8" font-family="Times,serif" font-size="14.00" fill="#000000">Edward</text>
</g>
<!-- Queen Elizabeth II&#45;&gt;Edward -->
<g id="edge3" class="edge">
<title>Queen Elizabeth II&#45;&gt;Edward</title>
<path fill="none" stroke="#000000" d="M565.0598,-216.2022C571.1574,-207.5938 578.5898,-197.1011 585.2851,-187.6488"/>
<polygon fill="#000000" stroke="#000000" points="588.2432,-189.5279 591.1673,-179.3446 582.531,-185.4818 588.2432,-189.5279"/>
</g>
<!-- Anne -->
<g id="node5" class="node">
<title>Anne</title>
<ellipse fill="none" stroke="#000000" cx="776.453" cy="-162" rx="31.9031" ry="18"/>
<text text-anchor="middle" x="776.453" y="-157.8" font-family="Times,serif" font-size="14.00" fill="#000000">Anne</text>
</g>
<!-- Queen Elizabeth II&#45;&gt;Anne -->
<g id="edge4" class="edge">
<title>Queen Elizabeth II&#45;&gt;Anne</title>
<path fill="none" stroke="#000000" d="M599.1381,-218.9941C640.5688,-205.6771 700.3284,-186.4686 738.7806,-174.109"/>
<polygon fill="#000000" stroke="#000000" points="740.1011,-177.361 748.5503,-170.9687 737.959,-170.6968 740.1011,-177.361"/>
</g>
<!-- William -->
<g id="node6" class="node">
<title>William</title>
<ellipse fill="none" stroke="#000000" cx="189.453" cy="-90" rx="42.8712" ry="18"/>
<text text-anchor="middle" x="189.453" y="-85.8" font-family="Times,serif" font-size="14.00" fill="#000000">William</text>
</g>
<!-- Charles&#45;&gt;William -->
<g id="edge5" class="edge">
<title>Charles&#45;&gt;William</title>
<path fill="none" stroke="#000000" d="M282.494,-147.256C265.1795,-136.6009 241.5757,-122.0755 222.4752,-110.3214"/>
<polygon fill="#000000" stroke="#000000" points="224.133,-107.2319 213.7821,-104.9717 220.4643,-113.1936 224.133,-107.2319"/>
</g>
<!-- Harry -->
<g id="node7" class="node">
<title>Harry</title>
<ellipse fill="none" stroke="#000000" cx="306.453" cy="-90" rx="33.6054" ry="18"/>
<text text-anchor="middle" x="306.453" y="-85.8" font-family="Times,serif" font-size="14.00" fill="#000000">Harry</text>
</g>
<!-- Charles&#45;&gt;Harry -->
<g id="edge6" class="edge">
<title>Charles&#45;&gt;Harry</title>
<path fill="none" stroke="#000000" d="M306.453,-143.8314C306.453,-136.131 306.453,-126.9743 306.453,-118.4166"/>
<polygon fill="#000000" stroke="#000000" points="309.9531,-118.4132 306.453,-108.4133 302.9531,-118.4133 309.9531,-118.4132"/>
</g>
<!-- Beatrice -->
<g id="node8" class="node">
<title>Beatrice</title>
<ellipse fill="none" stroke="#000000" cx="401.453" cy="-90" rx="43.4124" ry="18"/>
<text text-anchor="middle" x="401.453" y="-85.8" font-family="Times,serif" font-size="14.00" fill="#000000">Beatrice</text>
</g>
<!-- Andrew&#45;&gt;Beatrice -->
<g id="edge7" class="edge">
<title>Andrew&#45;&gt;Beatrice</title>
<path fill="none" stroke="#000000" d="M480.5375,-146.3771C466.2435,-136.1873 447.3937,-122.7498 431.6825,-111.5497"/>
<polygon fill="#000000" stroke="#000000" points="433.5002,-108.5473 423.3258,-105.5924 429.4369,-114.2472 433.5002,-108.5473"/>
</g>
<!-- Eugenie -->
<g id="node9" class="node">
<title>Eugenie</title>
<ellipse fill="none" stroke="#000000" cx="505.453" cy="-90" rx="42.8577" ry="18"/>
<text text-anchor="middle" x="505.453" y="-85.8" font-family="Times,serif" font-size="14.00" fill="#000000">Eugenie</text>
</g>
<!-- Andrew&#45;&gt;Eugenie -->
<g id="edge8" class="edge">
<title>Andrew&#45;&gt;Eugenie</title>
<path fill="none" stroke="#000000" d="M503.2101,-143.8314C503.5309,-136.131 503.9124,-126.9743 504.269,-118.4166"/>
<polygon fill="#000000" stroke="#000000" points="507.7664,-118.5503 504.6858,-108.4133 500.7724,-118.2589 507.7664,-118.5503"/>
</g>
<!-- James -->
<g id="node10" class="node">
<title>James</title>
<ellipse fill="none" stroke="#000000" cx="600.453" cy="-90" rx="34.767" ry="18"/>
<text text-anchor="middle" x="600.453" y="-85.8" font-family="Times,serif" font-size="14.00" fill="#000000">James</text>
</g>
<!-- Edward&#45;&gt;James -->
<g id="edge9" class="edge">
<title>Edward&#45;&gt;James</title>
<path fill="none" stroke="#000000" d="M602.696,-143.8314C602.3752,-136.131 601.9936,-126.9743 601.6371,-118.4166"/>
<polygon fill="#000000" stroke="#000000" points="605.1336,-118.2589 601.2203,-108.4133 598.1397,-118.5503 605.1336,-118.2589"/>
</g>
<!-- Louise -->
<g id="node11" class="node">
<title>Louise</title>
<ellipse fill="none" stroke="#000000" cx="690.453" cy="-90" rx="37.1386" ry="18"/>
<text text-anchor="middle" x="690.453" y="-85.8" font-family="Times,serif" font-size="14.00" fill="#000000">Louise</text>
</g>
<!-- Edward&#45;&gt;Louise -->
<g id="edge10" class="edge">
<title>Edward&#45;&gt;Louise</title>
<path fill="none" stroke="#000000" d="M622.7612,-146.0209C634.7835,-136.0714 650.4206,-123.1303 663.6364,-112.1931"/>
<polygon fill="#000000" stroke="#000000" points="666.0258,-114.7588 671.4982,-105.6867 661.5628,-109.3661 666.0258,-114.7588"/>
</g>
<!-- Peter -->
<g id="node12" class="node">
<title>Peter</title>
<ellipse fill="none" stroke="#000000" cx="776.453" cy="-90" rx="30.7539" ry="18"/>
<text text-anchor="middle" x="776.453" y="-85.8" font-family="Times,serif" font-size="14.00" fill="#000000">Peter</text>
</g>
<!-- Anne&#45;&gt;Peter -->
<g id="edge11" class="edge">
<title>Anne&#45;&gt;Peter</title>
<path fill="none" stroke="#000000" d="M776.453,-143.8314C776.453,-136.131 776.453,-126.9743 776.453,-118.4166"/>
<polygon fill="#000000" stroke="#000000" points="779.9531,-118.4132 776.453,-108.4133 772.9531,-118.4133 779.9531,-118.4132"/>
</g>
<!-- Zara -->
<g id="node13" class="node">
<title>Zara</title>
<ellipse fill="none" stroke="#000000" cx="888.453" cy="-90" rx="28.9501" ry="18"/>
<text text-anchor="middle" x="888.453" y="-85.8" font-family="Times,serif" font-size="14.00" fill="#000000">Zara</text>
</g>
<!-- Anne&#45;&gt;Zara -->
<g id="edge12" class="edge">
<title>Anne&#45;&gt;Zara</title>
<path fill="none" stroke="#000000" d="M797.5194,-148.4574C815.1036,-137.1532 840.3391,-120.9304 859.7665,-108.4414"/>
<polygon fill="#000000" stroke="#000000" points="861.7164,-111.3487 868.2355,-102.997 857.9311,-105.4605 861.7164,-111.3487"/>
</g>
<!-- George -->
<g id="node14" class="node">
<title>George</title>
<ellipse fill="none" stroke="#000000" cx="39.453" cy="-18" rx="39.4061" ry="18"/>
<text text-anchor="middle" x="39.453" y="-13.8" font-family="Times,serif" font-size="14.00" fill="#000000">George</text>
</g>
<!-- William&#45;&gt;George -->
<g id="edge13" class="edge">
<title>William&#45;&gt;George</title>
<path fill="none" stroke="#000000" d="M161.2392,-76.4574C137.128,-64.884 102.2756,-48.1548 76.0269,-35.5555"/>
<polygon fill="#000000" stroke="#000000" points="77.3112,-32.2896 66.7814,-31.1176 74.2821,-38.6003 77.3112,-32.2896"/>
</g>
<!-- Charlotte -->
<g id="node15" class="node">
<title>Charlotte</title>
<ellipse fill="none" stroke="#000000" cx="143.453" cy="-18" rx="46.9458" ry="18"/>
<text text-anchor="middle" x="143.453" y="-13.8" font-family="Times,serif" font-size="14.00" fill="#000000">Charlotte</text>
</g>
<!-- William&#45;&gt;Charlotte -->
<g id="edge14" class="edge">
<title>William&#45;&gt;Charlotte</title>
<path fill="none" stroke="#000000" d="M178.3177,-72.5708C172.8773,-64.0553 166.2171,-53.6308 160.181,-44.183"/>
<polygon fill="#000000" stroke="#000000" points="162.9786,-42.0608 154.6452,-35.5182 157.0797,-45.8296 162.9786,-42.0608"/>
</g>
<!-- Louis -->
<g id="node16" class="node">
<title>Louis</title>
<ellipse fill="none" stroke="#000000" cx="241.453" cy="-18" rx="33.0643" ry="18"/>
<text text-anchor="middle" x="241.453" y="-13.8" font-family="Times,serif" font-size="14.00" fill="#000000">Louis</text>
</g>
<!-- William&#45;&gt;Louis -->
<g id="edge15" class="edge">
<title>William&#45;&gt;Louis</title>
<path fill="none" stroke="#000000" d="M202.0408,-72.5708C208.4572,-63.6866 216.3743,-52.7245 223.4253,-42.9615"/>
<polygon fill="#000000" stroke="#000000" points="226.3217,-44.929 229.3393,-34.7729 220.6469,-40.8305 226.3217,-44.929"/>
</g>
<!-- Archie -->
<g id="node17" class="node">
<title>Archie</title>
<ellipse fill="none" stroke="#000000" cx="329.453" cy="-18" rx="37.1174" ry="18"/>
<text text-anchor="middle" x="329.453" y="-13.8" font-family="Times,serif" font-size="14.00" fill="#000000">Archie</text>
</g>
<!-- Harry&#45;&gt;Archie -->
<g id="edge16" class="edge">
<title>Harry&#45;&gt;Archie</title>
<path fill="none" stroke="#000000" d="M312.1384,-72.2022C314.7094,-64.1541 317.8065,-54.4588 320.6662,-45.5067"/>
<polygon fill="#000000" stroke="#000000" points="324.0443,-46.4334 323.7533,-35.8425 317.3763,-44.3033 324.0443,-46.4334"/>
</g>
<!-- August -->
<g id="node18" class="node">
<title>August</title>
<ellipse fill="none" stroke="#000000" cx="505.453" cy="-18" rx="38.8652" ry="18"/>
<text text-anchor="middle" x="505.453" y="-13.8" font-family="Times,serif" font-size="14.00" fill="#000000">August</text>
</g>
<!-- Eugenie&#45;&gt;August -->
<g id="edge17" class="edge">
<title>Eugenie&#45;&gt;August</title>
<path fill="none" stroke="#000000" d="M505.453,-71.8314C505.453,-64.131 505.453,-54.9743 505.453,-46.4166"/>
<polygon fill="#000000" stroke="#000000" points="508.9531,-46.4132 505.453,-36.4133 501.9531,-46.4133 508.9531,-46.4132"/>
</g>
<!-- Savannah -->
<g id="node19" class="node">
<title>Savannah</title>
<ellipse fill="none" stroke="#000000" cx="682.453" cy="-18" rx="48.6578" ry="18"/>
<text text-anchor="middle" x="682.453" y="-13.8" font-family="Times,serif" font-size="14.00" fill="#000000">Savannah</text>
</g>
<!-- Peter&#45;&gt;Savannah -->
<g id="edge18" class="edge">
<title>Peter&#45;&gt;Savannah</title>
<path fill="none" stroke="#000000" d="M757.4307,-75.4297C744.3041,-65.3753 726.5996,-51.8144 711.6909,-40.3949"/>
<polygon fill="#000000" stroke="#000000" points="713.8098,-37.6092 703.7427,-34.307 709.5532,-43.1664 713.8098,-37.6092"/>
</g>
<!-- Isla -->
<g id="node20" class="node">
<title>Isla</title>
<ellipse fill="none" stroke="#000000" cx="776.453" cy="-18" rx="27" ry="18"/>
<text text-anchor="middle" x="776.453" y="-13.8" font-family="Times,serif" font-size="14.00" fill="#000000">Isla</text>
</g>
<!-- Peter&#45;&gt;Isla -->
<g id="edge19" class="edge">
<title>Peter&#45;&gt;Isla</title>
<path fill="none" stroke="#000000" d="M776.453,-71.8314C776.453,-64.131 776.453,-54.9743 776.453,-46.4166"/>
<polygon fill="#000000" stroke="#000000" points="779.9531,-46.4132 776.453,-36.4133 772.9531,-46.4133 779.9531,-46.4132"/>
</g>
<!-- Mia -->
<g id="node21" class="node">
<title>Mia</title>
<ellipse fill="none" stroke="#000000" cx="848.453" cy="-18" rx="27" ry="18"/>
<text text-anchor="middle" x="848.453" y="-13.8" font-family="Times,serif" font-size="14.00" fill="#000000">Mia</text>
</g>
<!-- Zara&#45;&gt;Mia -->
<g id="edge20" class="edge">
<title>Zara&#45;&gt;Mia</title>
<path fill="none" stroke="#000000" d="M878.9736,-72.937C874.1415,-64.2393 868.1641,-53.4799 862.7835,-43.7948"/>
<polygon fill="#000000" stroke="#000000" points="865.7805,-41.9823 857.8644,-34.9405 859.6614,-45.3819 865.7805,-41.9823"/>
</g>
<!-- Lena -->
<g id="node22" class="node">
<title>Lena</title>
<ellipse fill="none" stroke="#000000" cx="923.453" cy="-18" rx="30.1765" ry="18"/>
<text text-anchor="middle" x="923.453" y="-13.8" font-family="Times,serif" font-size="14.00" fill="#000000">Lena</text>
</g>
<!-- Zara&#45;&gt;Lena -->
<g id="edge21" class="edge">
<title>Zara&#45;&gt;Lena</title>
<path fill="none" stroke="#000000" d="M896.9256,-72.5708C900.9797,-64.2309 905.9239,-54.0598 910.4405,-44.7686"/>
<polygon fill="#000000" stroke="#000000" points="913.713,-46.0421 914.9372,-35.5182 907.4175,-42.9817 913.713,-46.0421"/>
</g>
<!-- Lucas -->
<g id="node23" class="node">
<title>Lucas</title>
<ellipse fill="none" stroke="#000000" cx="1005.453" cy="-18" rx="34.1871" ry="18"/>
<text text-anchor="middle" x="1005.453" y="-13.8" font-family="Times,serif" font-size="14.00" fill="#000000">Lucas</text>
</g>
<!-- Zara&#45;&gt;Lucas -->
<g id="edge22" class="edge">
<title>Zara&#45;&gt;Lucas</title>
<path fill="none" stroke="#000000" d="M909.101,-77.2936C927.159,-66.1809 953.65,-49.8788 974.2868,-37.1792"/>
<polygon fill="#000000" stroke="#000000" points="976.3353,-40.0283 983.0176,-31.8064 972.6666,-34.0667 976.3353,-40.0283"/>
</g>
</g>
</svg>
