<?xml version="1.0" encoding="UTF-8" standalone="no"?>
<!DOCTYPE svg PUBLIC "-//W3C//DTD SVG 1.1//EN"
 "http://www.w3.org/Graphics/SVG/1.1/DTD/svg11.dtd">
<!-- Generated by graphviz version 2.40.1 (20161225.0304)
 -->
<!-- Title: mytree Pages: 1 -->
<svg width="482pt" height="188pt"
 viewBox="0.00 0.00 481.93 188.00" xmlns="http://www.w3.org/2000/svg" xmlns:xlink="http://www.w3.org/1999/xlink">
<g id="graph0" class="graph" transform="scale(1 1) rotate(0) translate(4 184)">
<title>mytree</title>
<polygon fill="#ffffff" stroke="transparent" points="-4,4 -4,-184 477.9325,-184 477.9325,4 -4,4"/>
<!-- Rickard -->
<g id="node1" class="node">
<title>Rickard</title>
<ellipse fill="none" stroke="#000000" cx="195.9325" cy="-162" rx="41.7114" ry="18"/>
<text text-anchor="middle" x="195.9325" y="-157.8" font-family="Times,serif" font-size="14.00" fill="#000000">Rickard</text>
</g>
<!-- Benjen -->
<g id="node2" class="node">
<title>Benjen</title>
<ellipse fill="none" stroke="#000000" cx="51.9325" cy="-90" rx="38.2818" ry="18"/>
<text text-anchor="middle" x="51.9325" y="-85.8" font-family="Times,serif" font-size="14.00" fill="#000000">Benjen</text>
</g>
<!-- Rickard&#45;&gt;Benjen -->
<g id="edge4" class="edge">
<title>Rickard&#45;&gt;Benjen</title>
<path fill="none" stroke="#000000" d="M168.5083,-148.2879C145.4984,-136.7829 112.4747,-120.2711 87.4462,-107.7568"/>
<polygon fill="#000000" stroke="#000000" points="88.7924,-104.5168 78.2828,-103.1751 85.6618,-110.7778 88.7924,-104.5168"/>
</g>
<!-- Lyanna -->
<g id="node3" class="node">
<title>Lyanna</title>
<ellipse fill="none" stroke="#000000" cx="147.9325" cy="-90" rx="39.9896" ry="18"/>
<text text-anchor="middle" x="147.9325" y="-85.8" font-family="Times,serif" font-size="14.00" fill="#000000">Lyanna</text>
</g>
<!-- Rickard&#45;&gt;Lyanna -->
<g id="edge3" class="edge">
<title>Rickard&#45;&gt;Lyanna</title>
<path fill="none" stroke="#000000" d="M184.3131,-144.5708C178.535,-135.9038 171.4387,-125.2592 165.0523,-115.6796"/>
<polygon fill="#000000" stroke="#000000" points="167.9042,-113.6477 159.445,-107.2687 162.0798,-117.5307 167.9042,-113.6477"/>
</g>
<!-- Eddard -->
<g id="node4" class="node">
<title>Eddard</title>
<ellipse fill="none" stroke="#000000" cx="244.9325" cy="-90" rx="38.8459" ry="18"/>
<text text-anchor="middle" x="244.9325" y="-85.8" font-family="Times,serif" font-size="14.00" fill="#000000">Eddard</text>
</g>
<!-- Rickard&#45;&gt;Eddard -->
<g id="edge2" class="edge">
<title>Rickard&#45;&gt;Eddard</title>
<path fill="none" stroke="#000000" d="M207.7941,-144.5708C213.6924,-135.9038 220.9367,-125.2592 227.4561,-115.6796"/>
<polygon fill="#000000" stroke="#000000" points="230.4474,-117.505 233.1802,-107.2687 224.6604,-113.5666 230.4474,-117.505"/>
</g>
<!-- Brandon -->
<g id="node5" class="node">
<title>Brandon</title>
<ellipse fill="none" stroke="#000000" cx="345.9325" cy="-90" rx="44.0852" ry="18"/>
<text text-anchor="middle" x="345.9325" y="-85.8" font-family="Times,serif" font-size="14.00" fill="#000000">Brandon</text>
</g>
<!-- Rickard&#45;&gt;Brandon -->
<g id="edge1" class="edge">
<title>Rickard&#45;&gt;Brandon</title>
<path fill="none" stroke="#000000" d="M223.7948,-148.6261C247.4885,-137.2531 281.7374,-120.8136 307.9422,-108.2354"/>
<polygon fill="#000000" stroke="#000000" points="309.6975,-111.2752 317.1982,-103.7925 306.6684,-104.9645 309.6975,-111.2752"/>
</g>
<!-- Rickon -->
<g id="node6" class="node">
<title>Rickon</title>
<ellipse fill="none" stroke="#000000" cx="38.9325" cy="-18" rx="38.8652" ry="18"/>
<text text-anchor="middle" x="38.9325" y="-13.8" font-family="Times,serif" font-size="14.00" fill="#000000">Rickon</text>
</g>
<!-- Eddard&#45;&gt;Rickon -->
<g id="edge10" class="edge">
<title>Eddard&#45;&gt;Rickon</title>
<path fill="none" stroke="#000000" d="M214.7895,-78.4734C208.885,-76.2787 202.727,-74.0336 196.9325,-72 148.3945,-54.9652 135.4705,-53.0348 86.9325,-36 84.2164,-35.0467 81.4203,-34.047 78.608,-33.0278"/>
<polygon fill="#000000" stroke="#000000" points="79.6691,-29.689 69.0755,-29.5266 77.2557,-36.2598 79.6691,-29.689"/>
</g>
<!-- Bran -->
<g id="node7" class="node">
<title>Bran</title>
<ellipse fill="none" stroke="#000000" cx="125.9325" cy="-18" rx="29.6147" ry="18"/>
<text text-anchor="middle" x="125.9325" y="-13.8" font-family="Times,serif" font-size="14.00" fill="#000000">Bran</text>
</g>
<!-- Eddard&#45;&gt;Bran -->
<g id="edge9" class="edge">
<title>Eddard&#45;&gt;Bran</title>
<path fill="none" stroke="#000000" d="M221.1371,-75.6028C202.4329,-64.2859 176.2586,-48.4494 156.0872,-36.2448"/>
<polygon fill="#000000" stroke="#000000" points="157.6577,-33.1043 147.29,-30.9222 154.034,-39.0934 157.6577,-33.1043"/>
</g>
<!-- Arya -->
<g id="node8" class="node">
<title>Arya</title>
<ellipse fill="none" stroke="#000000" cx="203.9325" cy="-18" rx="30.1765" ry="18"/>
<text text-anchor="middle" x="203.9325" y="-13.8" font-family="Times,serif" font-size="14.00" fill="#000000">Arya</text>
</g>
<!-- Eddard&#45;&gt;Arya -->
<g id="edge8" class="edge">
<title>Eddard&#45;&gt;Arya</title>
<path fill="none" stroke="#000000" d="M235.0076,-72.5708C230.1225,-63.9922 224.1343,-53.4762 218.7228,-43.9732"/>
<polygon fill="#000000" stroke="#000000" points="221.756,-42.2266 213.7661,-35.2687 215.6731,-45.6905 221.756,-42.2266"/>
</g>
<!-- Sansa -->
<g id="node9" class="node">
<title>Sansa</title>
<ellipse fill="none" stroke="#000000" cx="285.9325" cy="-18" rx="33.6247" ry="18"/>
<text text-anchor="middle" x="285.9325" y="-13.8" font-family="Times,serif" font-size="14.00" fill="#000000">Sansa</text>
</g>
<!-- Eddard&#45;&gt;Sansa -->
<g id="edge7" class="edge">
<title>Eddard&#45;&gt;Sansa</title>
<path fill="none" stroke="#000000" d="M254.8575,-72.5708C259.7425,-63.9922 265.7308,-53.4762 271.1422,-43.9732"/>
<polygon fill="#000000" stroke="#000000" points="274.192,-45.6905 276.099,-35.2687 268.1091,-42.2266 274.192,-45.6905"/>
</g>
<!-- Robb -->
<g id="node10" class="node">
<title>Robb</title>
<ellipse fill="none" stroke="#000000" cx="369.9325" cy="-18" rx="31.9243" ry="18"/>
<text text-anchor="middle" x="369.9325" y="-13.8" font-family="Times,serif" font-size="14.00" fill="#000000">Robb</text>
</g>
<!-- Eddard&#45;&gt;Robb -->
<g id="edge6" class="edge">
<title>Eddard&#45;&gt;Robb</title>
<path fill="none" stroke="#000000" d="M269.3305,-75.9468C289.1,-64.5595 317.0941,-48.4349 338.5346,-36.0852"/>
<polygon fill="#000000" stroke="#000000" points="340.3606,-39.0726 347.279,-31.0484 336.8667,-33.0068 340.3606,-39.0726"/>
</g>
<!-- Jon -->
<g id="node11" class="node">
<title>Jon</title>
<ellipse fill="none" stroke="#000000" cx="446.9325" cy="-18" rx="27" ry="18"/>
<text text-anchor="middle" x="446.9325" y="-13.8" font-family="Times,serif" font-size="14.00" fill="#000000">Jon</text>
</g>
<!-- Eddard&#45;&gt;Jon -->
<g id="edge5" class="edge">
<title>Eddard&#45;&gt;Jon</title>
<path fill="none" stroke="#000000" d="M275.0432,-78.3797C280.9505,-76.1931 287.1178,-73.9751 292.9325,-72 344.8501,-54.3652 360.0107,-56.3318 410.9325,-36 412.7334,-35.281 414.5668,-34.5063 416.4046,-33.6965"/>
<polygon fill="#000000" stroke="#000000" points="417.9191,-36.8522 425.4993,-29.45 414.9576,-30.5095 417.9191,-36.8522"/>
</g>
</g>
</svg>
